<svg xmlns="http://www.w3.org/2000/svg" viewBox="0 0 124 123"><defs><style>.cls-1{fill:#00a155;}.cls-2{fill:#fff;}.cls-3{fill:#ff1d25;}.cls-4{fill:#4a4f9c;}.cls-5{fill:#3b5998;}</style></defs><title>flat-tvaer-vector</title><g id="dice"><rect class="cls-1" x="32" y="22" width="36" height="36" rx="2" ry="2"/><circle class="cls-2" cx="39.5" cy="31.5" r="4.5"/><circle class="cls-2" cx="50.5" cy="41.5" r="4.5"/><circle class="cls-2" cx="61.5" cy="50.5" r="4.5"/><rect class="cls-3" x="50" y="76" width="36" height="36" rx="2" ry="2"/><circle class="cls-2" cx="76.5" cy="85.5" r="4.5"/><circle class="cls-2" cx="60.5" cy="103.5" r="4.5"/><rect class="cls-4" x="77" y="35" width="36" height="36" rx="2" ry="2"/><circle class="cls-2" cx="85.5" cy="44.5" r="4.5"/><circle class="cls-2" cx="103.5" cy="44.5" r="4.5"/><circle class="cls-2" cx="103.5" cy="62.5" r="4.5"/><circle class="cls-2" cx="85.5" cy="62.5" r="4.5"/><rect class="cls-5" x="9" y="65" width="36" height="36" rx="2" ry="2"/><path class="cls-2" d="M16,71a1,1,0,0,0-1,1V94a1,1,0,0,0,1,1h8a1,1,0,0,0,1-1V87.86a1,1,0,0,0-1-1h-.79a1,1,0,0,1-1-1v-.75a1,1,0,0,1,1-1H24c.55,0,1-.21,1-.47s.05-.92.11-1.47c0,0,.5-4.35,2.19-6a6.92,6.92,0,0,1,4.85-1.85,7.69,7.69,0,0,1,2.13.27A1.18,1.18,0,0,1,35,75.93l-.15.83a.82.82,0,0,1-1.12.65,4.8,4.8,0,0,0-1.36-.12c-3.08,0-3.73,4.76-3.73,4.76a14.93,14.93,0,0,0-.13,1.53c0,.29.45.53,1,.53h2.8a1,1,0,0,1,1,1v.75a1,1,0,0,1-1,1h-2.8a1,1,0,0,0-1,1V94a1,1,0,0,0,1,1H38a1,1,0,0,0,1-1V72a1,1,0,0,0-1-1Z"/></g></svg>