<svg id="bgr_pattern" data-name="bgr pattern" xmlns="http://www.w3.org/2000/svg" xmlns:xlink="http://www.w3.org/1999/xlink" viewBox="0 0 350 240"><defs><style>.cls-1{fill:none;}.cls-2{opacity:0.25;}.cls-3{fill:#603813;}.cls-4{fill:#bd9557;}.cls-5{fill:url(#New_Pattern_Swatch_2);}</style><pattern id="New_Pattern_Swatch_2" data-name="New Pattern Swatch 2" width="430.63" height="247" patternUnits="userSpaceOnUse" viewBox="0 0 430.63 247"><rect class="cls-1" width="430.63" height="247"/><g class="cls-2"><rect class="cls-3" x="18.18" y="31.43" width="123.74" height="4.42" rx="2.21" ry="2.21"/><rect class="cls-3" x="181.69" y="53.53" width="123.74" height="4.42" rx="2.21" ry="2.21"/><rect class="cls-3" x="256.81" y="110.98" width="123.74" height="4.42" rx="2.21" ry="2.21"/><rect class="cls-3" x="306.9" y="135.53" width="123.74" height="4.42" rx="2.21" ry="2.21"/><rect class="cls-3" x="6.39" y="150.75" width="86.91" height="4.42" rx="2.21" ry="2.21"/><rect class="cls-3" x="115.4" y="237.17" width="123.74" height="4.42" rx="2.21" ry="2.21"/><rect class="cls-3" x="159.59" y="168.43" width="123.74" height="4.42" rx="2.21" ry="2.21"/><rect class="cls-3" x="13.76" y="221.46" width="123.74" height="4.42" rx="2.21" ry="2.21"/><rect class="cls-3" x="275.43" y="31.43" width="40.25" height="4.42" rx="2.21" ry="2.21"/><rect class="cls-3" x="328.62" y="53.53" width="40.25" height="4.42" rx="2.21" ry="2.21"/><rect class="cls-3" x="66.19" y="110.98" width="40.25" height="4.42" rx="2.21" ry="2.21"/><rect class="cls-3" x="321.44" y="168.43" width="40.25" height="4.42" rx="2.21" ry="2.21"/><rect class="cls-3" x="274" y="221.46" width="40.25" height="4.42" rx="2.21" ry="2.21"/><rect class="cls-3" x="360.34" y="82.01" width="40.25" height="4.42" rx="2.21" ry="2.21"/><rect class="cls-3" x="0.89" y="124.24" width="40.25" height="4.42" rx="2.21" ry="2.21"/><rect class="cls-3" x="50.09" y="189.05" width="40.25" height="4.42" rx="2.21" ry="2.21"/><rect class="cls-3" x="28.98" y="86.43" width="40.25" height="4.42" rx="2.21" ry="2.21"/></g></pattern></defs><title>flat-tvaer-vector</title><rect class="cls-4" x="55" y="-55" width="240" height="350" transform="translate(295 -55) rotate(90)"/><rect class="cls-5" width="350" height="240"/></svg>