<svg xmlns="http://www.w3.org/2000/svg" xmlns:xlink="http://www.w3.org/1999/xlink" viewBox="0 0 193 195"><defs><style>.cls-1{fill:none;}.cls-2{isolation:isolate;}.cls-3{fill:#00331b;}.cls-4,.cls-8{stroke:#000;stroke-miterlimit:10;opacity:0.1;mix-blend-mode:overlay;}.cls-4{fill:url(#diamonds);}.cls-5{fill:#004223;}.cls-6{fill:#00542d;}.cls-7{fill:#006837;}.cls-8{fill:url(#diamonds-3);}</style><pattern id="diamonds" data-name="diamonds" width="42.43" height="71.43" patternTransform="matrix(-0.19, 0.41, -0.41, -0.19, 45.28, 104.8)" patternUnits="userSpaceOnUse" viewBox="0 0 42.43 71.43"><rect class="cls-1" width="42.43" height="71.43"/><polygon points="21.21 71.43 0 35.21 21.21 0 42.43 35.21 21.21 71.43"/></pattern><pattern id="diamonds-3" data-name="diamonds" width="42.43" height="71.43" patternTransform="translate(16.66 51.49) rotate(160) scale(0.46)" patternUnits="userSpaceOnUse" viewBox="0 0 42.43 71.43"><rect class="cls-1" width="42.43" height="71.43"/><polygon points="21.21 71.43 0 35.21 21.21 0 42.43 35.21 21.21 71.43"/></pattern></defs><title>flat-tvaer-vector</title><g class="cls-2"><g id="cards"><rect class="cls-3" x="52.28" y="61.34" width="82" height="135" rx="9.75" ry="9.75" transform="translate(-61.56 165.25) rotate(-67.33)"/><polygon class="cls-4" points="157.45 120.68 130.74 179.94 29.55 134.32 56.26 75.06 157.45 120.68"/><rect class="cls-5" x="62.69" y="26.35" width="82" height="135" rx="9.75" ry="9.75" transform="translate(-35.83 103.56) rotate(-46.13)"/><rect class="cls-6" x="68.2" y="17.61" width="82" height="135" rx="9.75" ry="9.75" transform="translate(-27.93 66.03) rotate(-30.01)"/><rect class="cls-7" x="76.88" y="11.5" width="82" height="135" rx="9.75" ry="9.75" transform="translate(-20.11 45.88) rotate(-20.33)"/><polygon class="cls-8" points="167.26 119.25 106.31 141.84 67.74 37.75 128.69 15.16 167.26 119.25"/></g></g></svg>